# xmcd CD database file
#
# Track frame offsets:
#	183
#	29718
#	35608
#	76915
#	116463
#	124698
#
# Disc length: 2007 seconds
#
# Revision: 0
# Processed by: cddbd v1.5.1PL2 Copyright (c) Steve Scherf et al.
# Submitted via: CDex 1.51
#
DISCID=4707d506
DTITLE=Bud Powell - At The Golden Circle
DYEAR=1962
DGENRE=Jazz
TTITLE0=Move
TTITLE1=Just A Gigolo 
TTITLE2=Relaxin' At Camarillo
TTITLE3=I Remember Clifford
TTITLE4=Reets And I
TTITLE5=Hackensack
EXTD=YEAR: 1962
EXTT0=
EXTT1=
EXTT2=
EXTT3=
EXTT4=
EXTT5=
PLAYORDER=
